<?xml version="1.0" encoding="UTF-8"?>
<svg xmlns="http://www.w3.org/2000/svg" width="512" height="512" viewBox="0 0 512 512">
  <rect width="512" height="512" fill="#0a0a0a"/>
  <g transform="translate(106, 96) scale(2.2)">
    <path fill="#0FE69B" d="M92.6,22.5c-4.7-3.3-11.5-3.8-17.9-2.2c-0.8,5.9,2.2,10.5,6.6,12.4c-1.4-2.4-1.9-5-1.8-7.4 C85.1,27.3,90.3,25.9,92.6,22.5 M102.9,34c-0.4,10.9,8.7,7.8,15.5,10.7c-1.4-1.6-2.8-3.1-4.1-4.7C109.6,38.4,105.6,36.5,102.9,34z M6.5,80.2c2.2-28,18.7-51.6,52.3-57c-7.2-1.5-15.6-1.5-22.5,0.1C48.4,14.1,63.1,8.6,78.7,8.6c11.7,0,22.5,3.2,31.5,8.7l-5.2,4.5 c7.2,3.9,15,9.8,20.9,17c-1.1,0.9-2.2,1.8-3.3,2.7c5.6,4.4,11.8,11.7,15.3,17.6c-2.4,1.5-6.4,2-9.8,2.1c1.6,1.5,3.9,2.5,6.6,2.9 c-3.4,6-7.9,9.8-13.6,11.2c0-0.8-2.9-6.1-13.1-6.3c3.3-0.9,9.8-1.4,15.2-0.5c-10-3.7-24.8-3.6-28,6.6c-1.5,4.8,1.5,9.8,10,10.5 c6.3,0.6,10.2,0,14.6-0.9c-3.8,7.7-13.5,16.2-29.3,15.8c1.3-1.5,2.4-3.4,3.2-5.6C78,90.5,71.8,85.3,71.6,76.8 c-0.2-8.9,8.6-16.5,25.8-18.4c-13.8-3.2-28.3-0.9-38.9,6.2c2-9.5,6-15.8,9.9-21.4c-23.6,13.6-30.9,46-15.4,68.7 C48.2,96.3,51.4,77,66.8,67.2c-5.4,16.6,2.6,29,13.8,34.9c13.7,7.2,35.8,6.8,50.6-0.2c-4.6,9.4-11.1,17.7-18.8,24.4 c-16.7,2.7-34.9-1.3-42.6-5.9c3.1,7.4,9.5,15.5,14.2,21.1c-31.8-0.2-49-19.5-51.9-31.7c-2.3,5.9-3.3,14.2-3.4,20.9 c-9.4-10-13.3-23.1-12.8-36.1c0.5-11.3,3.7-23.1,9.7-32.4C18.3,66.1,12.3,72,6.5,80.2z"/>
  </g>
</svg>
